Coordinates
version=1
nRows=6
nColumns=46
inDegrees=yes

Units are S.I. units (second, meters, Newtons, ...)
Angles are in degrees.

endheader
time	pelvis_tilt	pelvis_list	pelvis_rotation	pelvis_tx	pelvis_ty	pelvis_tz	bb_angle	bb_tx	bb_ty	bb_tz	hip_flexion_r	hip_adduction_r	hip_rotation_r	knee_angle_r	knee_angle_r_beta	ankle_angle_r	subtalar_angle_r	mtp_angle_r	crank_angle_r	hip_flexion_l	hip_adduction_l	hip_rotation_l	knee_angle_l	knee_angle_l_beta	ankle_angle_l	subtalar_angle_l	mtp_angle_l	crank_angle_l	lumbar_extension	lumbar_bending	lumbar_rotation	arm_flex_r	arm_add_r	arm_rot_r	elbow_flex_r	pro_sup_r	wrist_flex_r	wrist_dev_r	arm_flex_l	arm_add_l	arm_rot_l	elbow_flex_l	pro_sup_l	wrist_flex_l	wrist_dev_l
      5.00000000	    -32.58398944	     -7.07315081	    -13.04526601	      0.42389500	      1.19032943	     -0.27759832	      0.00000000	      0.50000000	      0.00000000	      0.25000000	     79.79935499	     10.62324460	     -1.21421644	     89.82827912	      1.56779923	      7.10728520	     -7.46782076	      0.00000000	      0.00000000	     35.78286408	    -19.75221484	     -8.04228162	     39.13949070	      0.68311298	    -25.03209325	      1.69247260	      0.00000000	      0.00000000	    -66.43240614	     -3.83202530	      7.27593843	     41.14025644	    -28.11138963	     23.85531923	    112.96971617	     51.06858288	      0.00000000	      0.00000000	     21.58768128	    -29.88579382	      4.18607341	    113.11314171	     54.76948200	      0.00000000	      0.00000000
      5.00500000	    -32.55225087	     -6.53688174	    -12.91536970	      0.42427117	      1.19203625	     -0.27670369	      0.00000000	      0.50000000	      0.00000000	      0.25000000	     78.40117369	     10.52701939	     -0.67164862	     87.19655275	      1.52186694	      8.06197948	     -7.96515553	      0.00000000	      0.00000000	     37.09420115	    -19.23471084	     -6.97662520	     41.77046133	      0.72903208	    -25.57845001	      1.30787964	      0.00000000	      0.00000000	    -66.60620506	     -4.30824439	      7.03552406	     40.70971434	    -27.90442986	     23.17517626	    113.16288110	     51.01656878	      0.00000000	      0.00000000	     22.34228672	    -29.94224564	      4.49643526	    113.08633927	     54.79396497	      0.00000000	      0.00000000
      5.01000000	    -32.64905571	     -5.89578340	    -12.83358660	      0.42454579	      1.19316120	     -0.27570861	      0.00000000	      0.50000000	      0.00000000	      0.25000000	     77.13771139	     10.30730592	     -0.20068863	     84.47151335	      1.47430603	      8.59499475	     -8.37039417	      0.00000000	      0.00000000	     38.60721646	    -18.73707491	     -6.23813985	     44.53689720	      0.77731549	    -26.18109651	      0.75194815	      0.00000000	      0.00000000	    -66.56493565	     -4.98096562	      7.71831443	     38.96336082	    -28.45458457	     20.97151278	    114.31401352	     50.91960724	      0.00000000	      0.00000000	     24.29001054	    -29.40526254	      6.02144704	    112.39043048	     54.85614094	      0.00000000	      0.00000000
      5.01500000	    -32.62822613	     -5.19206761	    -12.92018764	      0.42524959	      1.19427675	     -0.27461311	      0.00000000	      0.50000000	      0.00000000	      0.25000000	     75.69249557	     10.27206628	      0.48970313	     81.64638423	      1.42499823	      8.88897434	     -8.73424561	      0.00000000	      0.00000000	     39.84209448	    -18.23321276	     -5.81288311	     47.15976602	      0.82309319	    -26.83646069	     -0.01045400	      0.00000000	      0.00000000	    -66.63394052	     -5.69362076	      7.20371373	     38.66935124	    -28.19342362	     20.77131790	    114.33735149	     50.89986672	      0.00000000	      0.00000000	     24.70705391	    -29.48635911	      5.96870360	    112.46761332	     54.85639722	      0.00000000	      0.00000000
      5.02000000	    -32.56132887	     -4.55181412	    -12.75939289	      0.42565792	      1.19514209	     -0.27372713	      0.00000000	      0.50000000	      0.00000000	      0.25000000	     74.22652344	      9.98526709	      1.04077271	     78.82103475	      1.37568658	      8.81861986	     -9.18276770	      0.00000000	      0.00000000	     41.13772221	    -17.62138296	     -5.18231106	     49.72880942	      0.86793146	    -27.47070253	     -0.65068144	      0.00000000	      0.00000000	    -66.73091435	     -6.22013411	      6.65005446	     38.28645413	    -27.83915267	     20.30880519	    114.36923747	     50.85220892	      0.00000000	      0.00000000	     25.11740645	    -29.63119663	      6.01237235	    112.59122947	     54.87662800	      0.00000000	      0.00000000
      5.02500000	    -32.49321004	     -3.82071839	    -12.53827670	      0.42595957	      1.19572058	     -0.27297484	      0.00000000	      0.50000000	      0.00000000	      0.25000000	     72.85721679	      9.53228819	      1.62274021	     76.08528651	      1.32793876	      8.42163113	     -9.56552972	      0.00000000	      0.00000000	     42.41245569	    -16.90367537	     -4.67879484	     52.17383885	      0.91060527	    -28.10114950	     -1.09711997	      0.00000000	      0.00000000	    -66.79543762	     -6.69001063	      6.01935379	     37.83182266	    -27.44718816	     19.71454376	    114.43966036	     50.79655887	      0.00000000	      0.00000000	     25.49041088	    -29.79188949	      6.15815453	    112.65787003	     54.90093969	      0.00000000	      0.00000000
